<svg width="361" height="463" viewBox="0 0 361 463" fill="none" xmlns="http://www.w3.org/2000/svg">
<g clip-path="url(#clip0_155_681)">
<path d="M157.544 385.625C95.2971 376.817 43.1037 351.508 17.3311 308.865C34.4131 365.002 88.102 396.992 154.619 406.398C221.153 415.82 281.654 399.983 313.625 350.727C277.018 384.578 219.823 394.432 157.56 385.625H157.544Z" fill="#364695"/>
<path d="M156.364 420.375C154.786 420.342 153.573 418.182 153.639 415.573L154.719 374.359L160.286 374.642L159.322 415.689C159.256 418.315 157.926 420.425 156.348 420.375H156.364Z" fill="#DF7BAF"/>
<path d="M352.941 270.777C339.215 367.794 254.536 399.335 157.544 385.609C60.5348 371.899 -12.064 318.072 1.66146 221.072C15.4036 124.055 105.168 56.5514 202.16 70.2781C299.169 84.0047 366.666 173.776 352.941 270.793V270.777Z" fill="url(#paint0_linear_155_681)"/>
<path d="M337.703 44.1376C299.235 67.1039 282.801 85.9158 250.714 120.88C247.092 124.819 256.131 131.732 265.569 136.551L299.817 153.103C312.778 158.487 329.361 162.991 333.665 151.923C339.896 135.87 354.004 99.7587 360.584 59.4596C363.06 44.3204 354.22 34.283 337.703 44.1376Z" fill="url(#paint1_linear_155_681)"/>
<path opacity="0.73" d="M285.077 135.97C293.236 139.909 317.48 153.951 321.335 146.556C345.064 101.039 352.525 68.2677 354.685 59.4268C358.042 45.7002 346.56 43.9719 336.839 55.2889C327.101 66.6059 282.302 125.567 282.302 125.567C278.946 128.957 280.79 133.893 285.094 135.97H285.077Z" fill="#E9B5D4"/>
<path d="M90.4118 9.17371C116.932 45.2851 124.759 69.0159 140.744 113.702C142.555 118.754 131.538 121.596 120.97 122.36L82.9841 124.288C68.9429 124.222 51.9273 121.912 52.2597 110.046C52.7582 92.8298 53.7884 54.0761 63.3929 14.3752C66.9988 -0.54794 79.0293 -6.3477 90.4285 9.1571L90.4118 9.17371Z" fill="url(#paint2_linear_155_681)"/>
<path opacity="0.73" d="M103.207 114.233C94.1507 114.699 66.3674 118.205 65.6861 109.896C61.5153 58.745 67.3644 25.6415 68.8101 16.6511C71.0534 2.69176 82.3029 5.56671 86.8726 19.7753C91.4422 33.9839 109.82 105.725 109.82 105.725C111.598 110.162 107.976 113.984 103.207 114.217V114.233Z" fill="#E9B5D4"/>
<path d="M186.972 260.408L176.885 260.092L167.181 257.333C159.039 255.023 152.326 263.931 156.779 271.126L161.066 278.04L162.927 284.753C165.453 293.86 177.55 295.738 182.718 287.828L186.523 281.995L192.704 276.71C199.135 271.209 195.43 260.673 186.972 260.408Z" fill="#DF7BAF"/>
<path d="M142.804 232.273C141.425 210.437 124.792 191.924 102.293 188.95C80.3419 186.058 59.9863 198.937 52.5088 218.796C65.7856 209.456 82.4689 204.886 99.8168 207.329C117.165 209.772 132.618 219.162 142.804 232.273Z" fill="#DF7BAF"/>
<mask id="mask0_155_681" style="mask-type:luminance" maskUnits="userSpaceOnUse" x="52" y="188" width="91" height="45">
<path d="M142.804 232.273C141.425 210.437 124.792 191.924 102.293 188.95C80.3419 186.058 59.9863 198.937 52.5088 218.796C65.7856 209.456 82.4689 204.886 99.8168 207.329C117.165 209.772 132.618 219.162 142.804 232.273Z" fill="white"/>
</mask>
<g mask="url(#mask0_155_681)">
<path d="M135.626 212.108C138.876 187.421 125.659 165.321 106.106 162.747C86.5531 160.172 68.0677 178.098 64.8179 202.785C61.5681 227.472 74.7845 249.571 94.3376 252.146C113.891 254.72 132.376 236.795 135.626 212.108Z" fill="#354594"/>
<path d="M120.737 206.797C126.675 206.797 131.488 201.983 131.488 196.045C131.488 190.107 126.675 185.293 120.737 185.293C114.8 185.293 109.986 190.107 109.986 196.045C109.986 201.983 114.8 206.797 120.737 206.797Z" fill="white"/>
</g>
<path d="M304.503 255.955C303.124 234.119 286.49 215.606 263.991 212.631C242.04 209.74 221.685 222.619 214.207 242.478C227.484 233.138 244.167 228.568 261.515 231.011C278.863 233.454 294.317 242.843 304.503 255.955Z" fill="#DF7BAF"/>
<mask id="mask1_155_681" style="mask-type:luminance" maskUnits="userSpaceOnUse" x="214" y="212" width="91" height="44">
<path d="M304.503 255.955C303.124 234.119 286.49 215.606 263.991 212.631C242.04 209.74 221.685 222.619 214.207 242.478C227.484 233.138 244.167 228.568 261.515 231.011C278.863 233.454 294.317 242.843 304.503 255.955Z" fill="white"/>
</mask>
<g mask="url(#mask1_155_681)">
<path d="M297.288 235.811C300.538 211.124 287.321 189.024 267.768 186.45C248.215 183.875 229.73 201.801 226.48 226.488C223.23 251.175 236.447 273.274 256 275.849C275.553 278.423 294.038 260.498 297.288 235.811Z" fill="#354594"/>
<path d="M282.651 229.998C288.589 229.998 293.403 225.184 293.403 219.246C293.403 213.308 288.589 208.494 282.651 208.494C276.714 208.494 271.9 213.308 271.9 219.246C271.9 225.184 276.714 229.998 282.651 229.998Z" fill="white"/>
</g>
<path d="M206.763 447.113C206.664 447.079 206.564 447.046 206.464 447.013C206.464 447.013 206.497 447.013 206.531 446.996C208.79 446.68 210.369 444.57 210.037 442.293C209.721 440.033 207.611 438.454 205.334 438.77C205.201 438.803 205.085 438.82 204.952 438.853C205.052 438.77 205.135 438.671 205.218 438.587C206.763 436.892 206.647 434.25 204.952 432.721C203.24 431.159 200.615 431.292 199.07 432.987C198.92 433.153 198.804 433.336 198.687 433.502C198.737 433.236 198.771 432.954 198.771 432.688C198.771 431.591 198.322 430.511 197.541 429.747C197.474 429.68 197.408 429.647 197.342 429.58C197.375 429.53 197.391 429.497 197.425 429.447C197.657 429.53 197.89 429.614 198.156 429.663C198.405 429.713 198.671 429.73 198.92 429.73C200.881 429.73 202.626 428.351 203.008 426.356H202.991C203.423 424.096 201.944 421.919 199.684 421.504C199.502 421.471 199.302 421.471 199.12 421.454V421.304C199.352 421.271 199.585 421.205 199.834 421.122C202.011 420.374 203.157 418.014 202.41 415.837C201.662 413.677 199.302 412.513 197.125 413.261C196.893 413.344 196.677 413.444 196.461 413.56C196.428 413.527 196.411 413.494 196.378 413.461C196.527 413.278 196.677 413.095 196.793 412.879C197.956 410.901 197.308 408.359 195.331 407.196C193.353 406.016 190.811 406.68 189.631 408.658C189.498 408.874 189.415 409.09 189.332 409.323C189.282 409.323 189.233 409.323 189.183 409.306C189.183 409.24 189.199 409.19 189.199 409.123C189.199 406.83 187.338 404.969 185.045 404.969C182.752 404.969 180.891 406.83 180.891 409.123H180.725C180.725 406.83 178.864 404.969 176.571 404.969C174.277 404.969 172.416 406.83 172.416 409.123H172.25C172.25 406.83 170.389 404.969 168.096 404.969C165.803 404.969 163.942 406.83 163.942 409.123H163.776C163.776 406.83 161.914 404.969 159.621 404.969C157.328 404.969 155.467 406.83 155.467 409.123H155.301C155.301 406.83 153.44 404.969 151.147 404.969C148.854 404.969 146.993 406.83 146.993 409.123H146.826C146.826 406.83 144.965 404.969 142.672 404.969C140.379 404.969 138.518 406.83 138.518 409.123H138.368C138.368 406.83 136.507 404.969 134.214 404.969C131.921 404.969 130.06 406.83 130.06 409.123H129.894C129.894 406.83 128.033 404.969 125.74 404.969C123.447 404.969 121.586 406.83 121.586 409.123C121.586 409.173 121.586 409.24 121.586 409.289C121.536 409.289 121.469 409.289 121.419 409.323C121.336 409.09 121.237 408.874 121.12 408.658C119.974 406.664 117.431 405.999 115.437 407.146C113.46 408.309 112.779 410.852 113.942 412.829C114.075 413.045 114.241 413.211 114.39 413.394C114.357 413.444 114.307 413.477 114.274 413.527C114.058 413.411 113.842 413.311 113.609 413.211C111.449 412.447 109.073 413.594 108.325 415.754C107.561 417.914 108.691 420.291 110.868 421.055C111.1 421.138 111.333 421.205 111.582 421.238V421.388C111.399 421.388 111.217 421.388 111.017 421.437C108.757 421.853 107.262 424.013 107.677 426.273C108.043 428.284 109.788 429.697 111.765 429.697C111.998 429.697 112.263 429.663 112.513 429.614C112.762 429.564 112.995 429.497 113.227 429.414C113.261 429.481 113.294 429.547 113.344 429.614C113.277 429.663 113.211 429.713 113.144 429.78C112.945 429.963 112.762 430.179 112.612 430.411C112.463 430.627 112.347 430.877 112.23 431.126C112.131 431.375 112.047 431.641 111.998 431.907C111.948 432.173 111.915 432.439 111.915 432.721C111.915 432.937 111.948 433.153 111.981 433.369C111.881 433.236 111.815 433.103 111.699 432.987C110.17 431.275 107.544 431.126 105.833 432.655C104.121 434.184 103.972 436.826 105.5 438.521C105.6 438.621 105.683 438.72 105.766 438.803C105.65 438.77 105.517 438.737 105.384 438.72C103.108 438.371 100.997 439.933 100.648 442.21C100.299 444.47 101.861 446.597 104.138 446.93C104.171 446.946 104.188 446.946 104.221 446.946C104.121 446.98 104.022 447.013 103.922 447.046C101.762 447.827 100.632 450.204 101.413 452.364C102.194 454.524 104.57 455.638 106.73 454.857C106.846 454.823 106.963 454.774 107.079 454.724C107.013 454.823 106.93 454.923 106.863 455.039C105.683 457 106.315 459.56 108.292 460.739C110.253 461.919 112.812 461.288 113.992 459.31C114.058 459.211 114.125 459.094 114.174 458.961C114.224 461.221 116.069 463.033 118.329 463.033C120.406 463.033 122.134 461.504 122.433 459.51C122.749 461.504 124.46 463.033 126.537 463.033C128.614 463.033 130.343 461.504 130.658 459.51C130.957 461.504 132.686 463.033 134.763 463.033C136.84 463.033 138.551 461.504 138.867 459.51C139.166 461.504 140.894 463.033 142.971 463.033C145.048 463.033 146.777 461.504 147.076 459.51C147.375 461.504 149.103 463.033 151.18 463.033C153.257 463.033 154.985 461.504 155.284 459.51C155.583 461.504 157.312 463.033 159.389 463.033C161.466 463.033 163.194 461.504 163.493 459.51C163.809 461.504 165.52 463.033 167.597 463.033C169.675 463.033 171.403 461.504 171.702 459.51C172.018 461.504 173.729 463.033 175.823 463.033C177.916 463.033 179.611 461.504 179.927 459.51C180.226 461.504 181.938 463.033 184.031 463.033C186.125 463.033 187.82 461.504 188.136 459.51C188.435 461.504 190.163 463.033 192.24 463.033C194.5 463.033 196.328 461.221 196.394 458.978C196.444 459.111 196.511 459.227 196.577 459.344C197.74 461.304 200.283 461.969 202.26 460.789C204.237 459.626 204.902 457.083 203.722 455.106C203.656 454.99 203.589 454.89 203.523 454.79C203.639 454.84 203.756 454.89 203.872 454.94C206.032 455.737 208.408 454.624 209.206 452.48C210.004 450.32 208.89 447.927 206.747 447.146L206.763 447.113Z" fill="#DF7BAF"/>
<path d="M128.813 417.4V414.342H119.591V417.4H122.283V432.954H126.121V417.4H128.813Z" fill="#2F4795"/>
<path d="M135.095 425.077V432.954H139.099V425.509C139.099 424.695 138.817 424.014 138.235 423.482C138.036 423.299 137.803 423.149 137.521 423C137.77 422.867 138.003 422.701 138.186 422.535C138.717 422.019 138.967 421.338 138.967 420.507V418.164C138.967 417.017 138.584 416.087 137.82 415.389C137.056 414.691 136.042 414.342 134.779 414.342H129.645V432.954H133.649V424.346H134.181C134.779 424.346 135.078 424.595 135.078 425.094L135.095 425.077ZM134.131 421.67H133.649V417.383H134.131C134.729 417.383 135.028 417.632 135.028 418.131V420.923C135.028 421.421 134.729 421.67 134.131 421.67Z" fill="#2F4795"/>
<path d="M144.084 428.434H145.513L145.713 432.954H149.833L147.424 414.342H142.14L139.73 432.954H143.868L144.067 428.434H144.084ZM144.765 417.682H144.848L144.932 419.277L145.43 425.426H144.151L144.666 419.277L144.749 417.682H144.765Z" fill="#2F4795"/>
<path d="M160.07 432.954V414.342H156.714V422.518L156.979 425.975H156.863L156.298 422.518L154.188 414.342H150.632V432.954H153.988V425.027L153.723 421.571H153.839L154.404 425.027L156.531 432.954H160.07Z" fill="#2F4795"/>
<path d="M165.869 433.352H166.102C167.548 433.352 168.678 433.003 169.492 432.322C170.306 431.641 170.705 430.627 170.705 429.281V427.769C170.705 427.021 170.589 426.356 170.356 425.791C170.123 425.226 169.808 424.661 169.376 424.146C168.944 423.631 168.329 422.933 167.514 422.085L167.332 421.903L167.249 421.819C166.767 421.321 166.401 420.922 166.152 420.606C165.903 420.291 165.687 419.975 165.537 419.659C165.388 419.343 165.321 419.011 165.321 418.645V417.615C165.321 417.416 165.388 417.266 165.504 417.166C165.62 417.067 165.786 417 165.986 417H166.052C166.252 417 166.401 417.05 166.534 417.166C166.65 417.283 166.717 417.432 166.717 417.598V420.307H170.672V417.997C170.672 416.651 170.273 415.637 169.475 414.956C168.678 414.275 167.548 413.926 166.102 413.926H165.919C164.474 413.926 163.344 414.275 162.529 414.956C161.715 415.637 161.316 416.651 161.316 417.997V418.296C161.316 419.144 161.433 419.875 161.682 420.49C161.931 421.105 162.264 421.653 162.696 422.168C163.128 422.667 163.792 423.365 164.706 424.262C164.773 424.312 164.823 424.362 164.889 424.428C165.57 425.11 166.036 425.642 166.318 426.057C166.601 426.473 166.733 426.954 166.733 427.503V429.68C166.733 429.863 166.667 429.996 166.551 430.112C166.434 430.228 166.268 430.278 166.052 430.278H165.986C165.77 430.278 165.604 430.228 165.487 430.112C165.371 430.012 165.304 429.863 165.304 429.663V425.758H161.3V429.264C161.3 430.61 161.699 431.624 162.513 432.306C163.327 432.987 164.457 433.336 165.903 433.336L165.869 433.352Z" fill="#2F4795"/>
<path d="M177.086 425.774C178.349 425.774 179.362 425.425 180.127 424.727C180.891 424.029 181.273 423.099 181.273 421.952V418.18C181.273 417.033 180.891 416.102 180.127 415.404C179.362 414.706 178.349 414.357 177.086 414.357H171.885V432.97H175.889V425.791H177.086V425.774ZM177.269 418.13V421.952C177.269 422.451 176.97 422.7 176.371 422.7H175.889V417.382H176.371C176.97 417.382 177.269 417.631 177.269 418.13Z" fill="#2F4795"/>
<path d="M185.178 432.954L185.377 428.434H186.806L187.005 432.954H191.126L188.717 414.342H183.433L181.023 432.954H185.161H185.178ZM186.058 417.682H186.141L186.224 419.277L186.723 425.426H185.444L185.959 419.277L186.042 417.682H186.058Z" fill="#2F4795"/>
<path d="M123.746 444.205C123.995 444.072 124.227 443.906 124.41 443.74C124.942 443.224 125.191 442.543 125.191 441.712V439.369C125.191 438.222 124.809 437.292 124.045 436.594C123.28 435.896 122.267 435.547 121.004 435.547H115.869V454.159H119.874V445.551H120.406C121.004 445.551 121.303 445.8 121.303 446.299V454.176H125.307V446.731C125.307 445.917 125.025 445.235 124.443 444.704C124.244 444.521 124.011 444.371 123.729 444.222L123.746 444.205ZM121.253 442.128C121.253 442.626 120.954 442.876 120.356 442.876H119.874V438.588H120.356C120.954 438.588 121.253 438.837 121.253 439.336V442.128Z" fill="#2F4795"/>
<path d="M130.542 445.717H132.868V442.659H130.542V438.605H133.699V435.547H126.537V454.159H133.782V451.102H130.542V445.717Z" fill="#2F4795"/>
<path d="M140.911 443.723L141.177 447.18H141.06L140.495 443.723L138.385 435.547H134.829V454.159H138.186V446.232L137.92 442.776H138.036L138.601 446.232L140.728 454.159H144.267V435.547H140.911V443.723Z" fill="#2F4795"/>
<path d="M145.098 438.605H147.806V454.159H151.628V438.605H154.337V435.547H145.098V438.605Z" fill="#2F4795"/>
<path d="M161.266 443.723L161.532 447.18H161.416L160.851 443.723L158.741 435.547H155.168V454.159H158.525V446.232L158.259 442.776H158.375L158.94 446.232L161.084 454.159H164.623V435.547H161.266V443.723Z" fill="#2F4795"/>
<path d="M170.671 435.146H170.439C168.993 435.146 167.863 435.495 167.049 436.177C166.235 436.858 165.836 437.872 165.836 439.218V450.485C165.836 451.831 166.235 452.845 167.049 453.526C167.863 454.208 168.993 454.557 170.439 454.557H170.671C172.117 454.557 173.247 454.208 174.061 453.526C174.875 452.845 175.274 451.831 175.274 450.485V439.218C175.274 437.872 174.875 436.858 174.061 436.177C173.247 435.495 172.117 435.146 170.671 435.146ZM171.27 450.884C171.27 451.083 171.203 451.233 171.087 451.333C170.971 451.432 170.804 451.499 170.588 451.499H170.522C170.306 451.499 170.14 451.449 170.023 451.333C169.907 451.233 169.841 451.083 169.841 450.884V438.819C169.841 438.62 169.907 438.47 170.023 438.37C170.14 438.271 170.306 438.204 170.522 438.204H170.588C170.804 438.204 170.971 438.254 171.087 438.37C171.203 438.47 171.27 438.62 171.27 438.819V450.884Z" fill="#2F4795"/>
<path d="M184.447 445.334C184.015 444.818 183.4 444.12 182.586 443.273L182.403 443.09L182.32 443.007C181.838 442.508 181.472 442.11 181.223 441.794C180.974 441.478 180.758 441.162 180.608 440.847C180.459 440.531 180.392 440.198 180.392 439.833V438.803C180.392 438.603 180.459 438.454 180.575 438.354C180.691 438.254 180.858 438.188 181.057 438.188H181.123C181.323 438.188 181.472 438.238 181.605 438.354C181.722 438.47 181.788 438.62 181.788 438.786V441.495H185.743V439.185C185.743 437.839 185.344 436.825 184.547 436.144C183.749 435.462 182.619 435.113 181.173 435.113H180.991C179.545 435.113 178.415 435.462 177.601 436.144C176.787 436.825 176.388 437.839 176.388 439.185V439.484C176.388 440.331 176.504 441.063 176.753 441.677C177.003 442.292 177.335 442.841 177.767 443.356C178.199 443.854 178.864 444.552 179.778 445.45C179.844 445.5 179.894 445.55 179.96 445.616C180.642 446.297 181.107 446.829 181.389 447.245C181.672 447.66 181.805 448.142 181.805 448.69V450.867C181.805 451.05 181.738 451.183 181.622 451.299C181.506 451.416 181.34 451.466 181.123 451.466H181.057C180.841 451.466 180.675 451.416 180.559 451.299C180.442 451.2 180.376 451.05 180.376 450.851V446.945H176.371V450.452C176.371 451.798 176.77 452.812 177.584 453.493C178.398 454.174 179.528 454.523 180.974 454.523H181.207C182.652 454.523 183.782 454.174 184.596 453.493C185.411 452.812 185.809 451.798 185.809 450.452V448.94C185.809 448.192 185.693 447.527 185.46 446.962C185.228 446.397 184.912 445.832 184.48 445.317L184.447 445.334Z" fill="#2F4795"/>
<path d="M195.397 435.547H186.158V438.605H188.85V454.159H192.689V438.605H195.397V435.547Z" fill="#2F4795"/>
</g>
<defs>
<linearGradient id="paint0_linear_155_681" x1="4.05507" y1="202.984" x2="355.329" y2="252.661" gradientUnits="userSpaceOnUse">
<stop stop-color="white"/>
<stop offset="1" stop-color="white"/>
</linearGradient>
<linearGradient id="paint1_linear_155_681" x1="248.628" y1="105.888" x2="364.218" y2="97.3797" gradientUnits="userSpaceOnUse">
<stop stop-color="white"/>
<stop offset="1" stop-color="white"/>
</linearGradient>
<linearGradient id="paint2_linear_155_681" x1="148.448" y1="100.735" x2="45.2631" y2="47.9825" gradientUnits="userSpaceOnUse">
<stop stop-color="white"/>
<stop offset="1" stop-color="white"/>
</linearGradient>
<clipPath id="clip0_155_681">
<rect width="361" height="463" fill="white"/>
</clipPath>
</defs>
</svg>
