<svg width="214" height="224" viewBox="0 0 214 224" fill="none" xmlns="http://www.w3.org/2000/svg">
<g id="Group">
<path id="Vector" d="M213.51 139.07C213.48 198.03 165.67 223.94 106.72 223.91C47.76 223.88 -0.0199761 197.92 0.0100239 138.96C0.0400239 79.9998 47.86 32.2298 106.81 32.2598C165.77 32.2898 213.54 80.1098 213.51 139.06V139.07Z" fill="url(#paint0_linear_155_277)"/>
<path id="Vector_2" d="M185.38 5.29955C164.39 22.2195 156.18 34.8095 139.99 58.3395C138.16 60.9995 144.13 64.3495 150.16 66.4296L171.96 73.4096C180.14 75.5296 190.4 76.8195 192.03 69.8596C194.4 59.7696 199.76 37.0695 200.3 12.4995C200.5 3.26955 194.39 -1.97045 185.38 5.29955Z" fill="url(#paint1_linear_155_277)"/>
<path id="Vector_3" opacity="0.73" d="M161.74 64.4393C166.93 66.0993 182.56 72.4293 184.23 67.6993C194.54 38.5893 196.24 18.4293 196.79 12.9793C197.64 4.5193 190.65 4.4493 185.8 12.0093C180.95 19.5693 159.2 58.4693 159.2 58.4693C157.48 60.7693 159 63.5593 161.74 64.4293V64.4393Z" fill="#E9B5D4"/>
<path id="Vector_4" d="M35.08 5.23979C53.92 24.5298 60.58 38.0098 73.85 63.2898C75.35 66.1398 69.03 68.7698 62.79 70.1198L40.32 74.4598C31.95 75.5998 21.61 75.6598 20.81 68.5598C19.66 58.2598 17.02 35.0798 19.4 10.6198C20.29 1.42979 26.98 -3.05021 35.07 5.23979H35.08Z" fill="url(#paint2_linear_155_277)"/>
<path id="Vector_5" opacity="0.73" d="M51.53 66.7799C46.18 67.8099 29.91 72.2399 28.81 67.3499C22.02 37.2199 22.73 17.0099 22.84 11.5299C23 3.02992 29.95 3.78992 33.86 11.8699C37.78 19.9499 54.76 61.1599 54.76 61.1599C56.19 63.6499 54.36 66.2399 51.53 66.7799Z" fill="#E9B5D4"/>
<path id="Vector_6" d="M62.3 124.5C65.8733 124.5 68.7701 121.603 68.7701 118.03C68.7701 114.456 65.8733 111.56 62.3 111.56C58.7268 111.56 55.8301 114.456 55.8301 118.03C55.8301 121.603 58.7268 124.5 62.3 124.5Z" fill="white"/>
<path id="Vector_7" d="M42.03 156.07C43.709 156.07 45.07 154.709 45.07 153.03C45.07 151.351 43.709 149.99 42.03 149.99C40.3511 149.99 38.99 151.351 38.99 153.03C38.99 154.709 40.3511 156.07 42.03 156.07Z" fill="white"/>
<path id="Vector_8" d="M112.84 151.64L106.81 152.38L100.78 151.64C95.73 151.02 92.55 156.93 95.86 160.8L99.04 164.51L100.77 168.33C103.11 173.52 110.48 173.52 112.83 168.33L114.56 164.51L117.75 160.8C121.07 156.94 117.89 151.02 112.84 151.64Z" fill="#DF7BAF"/>
<g id="Group_2">
<path id="Vector_9" d="M155.11 161.96C170.546 161.96 183.06 149.446 183.06 134.01C183.06 118.573 170.546 106.06 155.11 106.06C139.674 106.06 127.16 118.573 127.16 134.01C127.16 149.446 139.674 161.96 155.11 161.96Z" fill="#DF7BAF"/>
<path id="Vector_10" d="M155.11 155.64C161.351 155.64 166.41 145.696 166.41 133.43C166.41 121.163 161.351 111.22 155.11 111.22C148.869 111.22 143.81 121.163 143.81 133.43C143.81 145.696 148.869 155.64 155.11 155.64Z" fill="#354594"/>
<path id="Vector_11" d="M162.93 124.44C165.708 124.44 167.96 122.188 167.96 119.41C167.96 116.632 165.708 114.38 162.93 114.38C160.152 114.38 157.9 116.632 157.9 119.41C157.9 122.188 160.152 124.44 162.93 124.44Z" fill="white"/>
</g>
<g id="Group_3">
<path id="Vector_12" d="M58.4 161.96C73.8363 161.96 86.3499 149.446 86.3499 134.01C86.3499 118.573 73.8363 106.06 58.4 106.06C42.9636 106.06 30.45 118.573 30.45 134.01C30.45 149.446 42.9636 161.96 58.4 161.96Z" fill="#DF7BAF"/>
<path id="Vector_13" d="M58.3999 155.64C64.6407 155.64 69.6999 145.696 69.6999 133.43C69.6999 121.163 64.6407 111.22 58.3999 111.22C52.1591 111.22 47.0999 121.163 47.0999 133.43C47.0999 145.696 52.1591 155.64 58.3999 155.64Z" fill="#354594"/>
<path id="Vector_14" d="M66.2199 124.44C68.9979 124.44 71.2499 122.188 71.2499 119.41C71.2499 116.632 68.9979 114.38 66.2199 114.38C63.4419 114.38 61.1899 116.632 61.1899 119.41C61.1899 122.188 63.4419 124.44 66.2199 124.44Z" fill="white"/>
</g>
</g>
<defs>
<linearGradient id="paint0_linear_155_277" x1="0.0328815" y1="128.059" x2="213.533" y2="128.171" gradientUnits="userSpaceOnUse">
<stop stop-color="white"/>
<stop offset="1" stop-color="white"/>
</linearGradient>
<linearGradient id="paint1_linear_155_277" x1="137.494" y1="49.5807" x2="205.648" y2="34.7953" gradientUnits="userSpaceOnUse">
<stop stop-color="white"/>
<stop offset="1" stop-color="white"/>
</linearGradient>
<linearGradient id="paint2_linear_155_277" x1="77.3747" y1="54.8972" x2="11.4447" y2="32.1313" gradientUnits="userSpaceOnUse">
<stop stop-color="white"/>
<stop offset="1" stop-color="white"/>
</linearGradient>
</defs>
</svg>
