<svg width="214" height="224" viewBox="0 0 214 224" fill="none" xmlns="http://www.w3.org/2000/svg">
<g id="Group">
<g id="Group_2">
<path id="Vector" d="M213.5 138.19C213.47 197.15 165.66 223.06 106.71 223.03C47.75 223 -0.0299859 197.04 1.41195e-05 138.08C0.0300141 79.1199 47.85 31.3499 106.8 31.3799C165.76 31.4099 213.53 79.2299 213.5 138.18V138.19Z" fill="url(#paint0_linear_155_317)"/>
<path id="Vector_2" d="M185.38 4.41966C164.39 21.3397 156.18 33.9297 139.99 57.4597C138.16 60.1197 144.13 63.4697 150.16 65.5497L171.96 72.5297C180.14 74.6497 190.4 75.9397 192.03 68.9797C194.4 58.8897 199.76 36.1897 200.3 11.6197C200.5 2.38966 194.39 -2.85034 185.38 4.41966Z" fill="url(#paint1_linear_155_317)"/>
<path id="Vector_3" opacity="0.73" d="M161.74 63.5604C166.93 65.2204 182.56 71.5504 184.23 66.8204C194.54 37.7104 196.24 17.5504 196.79 12.1004C197.64 3.6404 190.65 3.5704 185.8 11.1304C180.95 18.6904 159.2 57.5904 159.2 57.5904C157.48 59.8904 159 62.6804 161.74 63.5504V63.5604Z" fill="#E9B5D4"/>
<path id="Vector_4" d="M35.07 4.35991C53.91 23.6499 60.57 37.1299 73.84 62.4099C75.34 65.2599 69.02 67.8899 62.78 69.2399L40.31 73.5799C31.94 74.7199 21.6 74.7799 20.8 67.6799C19.65 57.3799 17.01 34.1999 19.39 9.73991C20.28 0.549909 26.97 -3.93009 35.06 4.35991H35.07Z" fill="url(#paint2_linear_155_317)"/>
<path id="Vector_5" opacity="0.73" d="M51.53 65.9C46.18 66.93 29.91 71.36 28.81 66.47C22.02 36.34 22.73 16.13 22.84 10.65C23 2.15004 29.95 2.91004 33.86 10.99C37.78 19.07 54.76 60.28 54.76 60.28C56.19 62.77 54.36 65.36 51.53 65.9Z" fill="#E9B5D4"/>
</g>
<g id="Group_3">
<g id="Group_4">
<g id="Group_5">
<path id="Vector_6" d="M155.2 160.26C170.73 160.26 183.32 147.67 183.32 132.14C183.32 116.609 170.73 104.02 155.2 104.02C139.67 104.02 127.08 116.609 127.08 132.14C127.08 147.67 139.67 160.26 155.2 160.26Z" fill="#DF7BAF"/>
<path id="Vector_7" d="M56.8001 161.16C72.3303 161.16 84.9201 148.57 84.9201 133.04C84.9201 117.51 72.3303 104.92 56.8001 104.92C41.2698 104.92 28.6801 117.51 28.6801 133.04C28.6801 148.57 41.2698 161.16 56.8001 161.16Z" fill="#DF7BAF"/>
<path id="Vector_8" d="M57.0414 160.167C68.9095 160.06 78.4202 147.826 78.2843 132.843C78.1483 117.86 68.417 105.802 56.5489 105.909C44.6808 106.017 35.1701 118.25 35.306 133.233C35.442 148.216 45.1733 160.275 57.0414 160.167Z" fill="#354594"/>
<path id="Vector_9" d="M156.239 159.267C168.107 159.159 177.618 146.926 177.482 131.943C177.346 116.96 167.615 104.901 155.747 105.009C143.878 105.117 134.368 117.35 134.504 132.333C134.64 147.316 144.371 159.375 156.239 159.267Z" fill="#354594"/>
</g>
<path id="Vector_10" d="M65.5701 123.32C69.1434 123.32 72.0401 120.423 72.0401 116.85C72.0401 113.277 69.1434 110.38 65.5701 110.38C61.9968 110.38 59.1001 113.277 59.1001 116.85C59.1001 120.423 61.9968 123.32 65.5701 123.32Z" fill="white"/>
<path id="Vector_11" d="M45.6401 155.09C47.319 155.09 48.6801 153.729 48.6801 152.05C48.6801 150.371 47.319 149.01 45.6401 149.01C43.9612 149.01 42.6001 150.371 42.6001 152.05C42.6001 153.729 43.9612 155.09 45.6401 155.09Z" fill="white"/>
<path id="Vector_12" d="M165.5 122.41C169.073 122.41 171.97 119.513 171.97 115.94C171.97 112.366 169.073 109.47 165.5 109.47C161.927 109.47 159.03 112.366 159.03 115.94C159.03 119.513 161.927 122.41 165.5 122.41Z" fill="white"/>
<path id="Vector_13" d="M145.15 154.46C146.829 154.46 148.19 153.099 148.19 151.42C148.19 149.741 146.829 148.38 145.15 148.38C143.471 148.38 142.11 149.741 142.11 151.42C142.11 153.099 143.471 154.46 145.15 154.46Z" fill="white"/>
</g>
<path id="Vector_14" d="M113 150.749L106.96 151.409L100.94 150.579C95.9001 149.889 92.6401 155.759 95.9001 159.669L99.0301 163.429L100.7 167.269C102.97 172.489 110.33 172.589 112.75 167.439L114.53 163.649L117.77 159.979C121.14 156.159 118.05 150.199 112.99 150.749H113Z" fill="#DF7BAF"/>
</g>
</g>
<defs>
<linearGradient id="paint0_linear_155_317" x1="0.0342105" y1="127.171" x2="213.534" y2="127.283" gradientUnits="userSpaceOnUse">
<stop stop-color="white"/>
<stop offset="1" stop-color="white"/>
</linearGradient>
<linearGradient id="paint1_linear_155_317" x1="137.485" y1="48.7318" x2="205.649" y2="33.9443" gradientUnits="userSpaceOnUse">
<stop stop-color="white"/>
<stop offset="1" stop-color="white"/>
</linearGradient>
<linearGradient id="paint2_linear_155_317" x1="77.3654" y1="54.0224" x2="11.4448" y2="31.2597" gradientUnits="userSpaceOnUse">
<stop stop-color="white"/>
<stop offset="1" stop-color="white"/>
</linearGradient>
</defs>
</svg>
