<svg width="214" height="224" viewBox="0 0 214 224" fill="none" xmlns="http://www.w3.org/2000/svg">
<rect width="214" height="224" fill="#F5F5F5"/>
<g id="Vrstva_1" clip-path="url(#clip0_0_1)">
<g id="Group">
<g id="Group_2">
<path id="Vector" d="M213.74 138.6C213.71 197.56 165.9 223.47 106.95 223.44C47.99 223.41 0.210004 197.45 0.240004 138.49C0.270004 79.5301 48.09 31.7601 107.04 31.7901C166 31.8201 213.77 79.64 213.74 138.59V138.6Z" fill="url(#paint0_linear_0_1)"/>
<path id="Vector_2" d="M185.62 4.82982C164.63 21.7498 156.42 34.3398 140.23 57.8698C138.4 60.5298 144.37 63.8798 150.4 65.9598L172.2 72.9398C180.38 75.0598 190.64 76.3498 192.27 69.3898C194.64 59.2998 200 36.5998 200.54 12.0298C200.74 2.79982 194.63 -2.44018 185.62 4.82982Z" fill="url(#paint1_linear_0_1)"/>
<path id="Vector_3" opacity="0.73" d="M161.98 63.9706C167.17 65.6306 182.8 71.9606 184.47 67.2306C194.78 38.1206 196.48 17.9606 197.03 12.5106C197.88 4.05055 190.89 3.98055 186.04 11.5406C181.19 19.1006 159.44 58.0005 159.44 58.0005C157.72 60.3005 159.24 63.0905 161.98 63.9605V63.9706Z" fill="#E9B5D4"/>
<path id="Vector_4" d="M35.31 4.77006C54.15 24.0601 60.81 37.5401 74.08 62.8201C75.58 65.6701 69.26 68.3001 63.02 69.6501L40.55 73.9901C32.18 75.1301 21.84 75.1901 21.04 68.0901C19.89 57.7901 17.25 34.6101 19.63 10.1501C20.52 0.960064 27.21 -3.51994 35.3 4.77006H35.31Z" fill="url(#paint2_linear_0_1)"/>
<path id="Vector_5" opacity="0.73" d="M51.77 66.3102C46.42 67.3402 30.15 71.7702 29.05 66.8802C22.26 36.7502 22.97 16.5402 23.08 11.0602C23.24 2.56019 30.19 3.32019 34.1 11.4002C38.02 19.4802 55 60.6902 55 60.6902C56.43 63.1802 54.6 65.7702 51.77 66.3102Z" fill="#E9B5D4"/>
</g>
<g id="Group_3">
<path id="Vector_6" d="M113.96 142.62L107.92 143.28L101.9 142.45C96.86 141.76 93.6 147.63 96.86 151.54L99.99 155.3L101.66 159.14C103.93 164.36 111.29 164.46 113.71 159.31L115.49 155.52L118.73 151.85C122.1 148.03 119.01 142.07 113.95 142.62H113.96Z" fill="#DF7BAF"/>
<g id="Group_4">
<path id="Vector_7" d="M85.29 129.561C82.63 116.671 71.17 107.031 57.51 107.151C44.19 107.271 33.14 116.651 30.35 129.121C37.48 122.441 47.04 118.311 57.58 118.311C68.12 118.311 78.12 122.611 85.29 129.561Z" fill="#DF7BAF"/>
<g id="Clip path group">
<mask id="mask0_0_1" style="mask-type:luminance" maskUnits="userSpaceOnUse" x="30" y="107" width="56" height="23">
<g id="clippath-4">
<path id="Vector_8" d="M85.29 129.561C82.63 116.671 71.17 107.031 57.51 107.151C44.19 107.271 33.14 116.651 30.35 129.121C37.48 122.441 47.04 118.311 57.58 118.311C68.12 118.311 78.12 122.611 85.29 129.561Z" fill="white"/>
</g>
</mask>
<g mask="url(#mask0_0_1)">
<g id="Group_5">
<path id="Vector_9" d="M58.0527 145.502C69.9209 145.394 79.4316 133.161 79.2956 118.178C79.1596 103.195 69.4284 91.1367 57.5603 91.2444C45.6922 91.3521 36.1814 103.585 36.3174 118.568C36.4534 133.551 46.1846 145.61 58.0527 145.502Z" fill="#354594"/>
<path id="Vector_10" d="M69.09 116.3C72.6633 116.3 75.56 113.404 75.56 109.83C75.56 106.257 72.6633 103.36 69.09 103.36C65.5167 103.36 62.62 106.257 62.62 109.83C62.62 113.404 65.5167 116.3 69.09 116.3Z" fill="white"/>
</g>
</g>
</g>
</g>
<g id="Group_6">
<path id="Vector_11" d="M183.63 130.091C180.97 117.201 169.51 107.561 155.85 107.681C142.53 107.801 131.48 117.181 128.69 129.651C135.82 122.971 145.38 118.841 155.92 118.841C166.46 118.841 176.46 123.141 183.63 130.091Z" fill="#DF7BAF"/>
<g id="Clip path group_2">
<mask id="mask1_0_1" style="mask-type:luminance" maskUnits="userSpaceOnUse" x="128" y="107" width="56" height="24">
<g id="clippath-5">
<path id="Vector_12" d="M183.63 130.091C180.97 117.201 169.51 107.561 155.85 107.681C142.53 107.801 131.48 117.181 128.69 129.651C135.82 122.971 145.38 118.841 155.92 118.841C166.46 118.841 176.46 123.141 183.63 130.091Z" fill="white"/>
</g>
</mask>
<g mask="url(#mask1_0_1)">
<g id="Group_7">
<path id="Vector_13" d="M156.394 146.05C168.262 145.942 177.772 133.709 177.636 118.726C177.5 103.743 167.769 91.6846 155.901 91.7923C144.033 91.9 134.522 104.133 134.658 119.116C134.794 134.099 144.525 146.158 156.394 146.05Z" fill="#354594"/>
<path id="Vector_14" d="M167.52 116.52C171.093 116.52 173.99 113.623 173.99 110.05C173.99 106.477 171.093 103.58 167.52 103.58C163.947 103.58 161.05 106.477 161.05 110.05C161.05 113.623 163.947 116.52 167.52 116.52Z" fill="white"/>
</g>
</g>
</g>
</g>
</g>
</g>
</g>
<defs>
<linearGradient id="paint0_linear_0_1" x1="0.265642" y1="127.584" x2="213.776" y2="127.696" gradientUnits="userSpaceOnUse">
<stop stop-color="white"/>
<stop offset="1" stop-color="white"/>
</linearGradient>
<linearGradient id="paint1_linear_0_1" x1="137.727" y1="49.1255" x2="205.891" y2="34.338" gradientUnits="userSpaceOnUse">
<stop stop-color="white"/>
<stop offset="1" stop-color="white"/>
</linearGradient>
<linearGradient id="paint2_linear_0_1" x1="77.6098" y1="54.4283" x2="11.6892" y2="31.6656" gradientUnits="userSpaceOnUse">
<stop stop-color="white"/>
<stop offset="1" stop-color="white"/>
</linearGradient>
<clipPath id="clip0_0_1">
<rect width="1006.26" height="263.91" fill="white" transform="translate(-253 -16)"/>
</clipPath>
</defs>
</svg>
