<svg width="52" height="54" viewBox="0 0 52 54" fill="none" xmlns="http://www.w3.org/2000/svg">
<path d="M46.3844 17.2832C46.5661 17.102 46.7016 16.8719 46.7709 16.5814C47.3477 14.1307 48.6543 8.6167 48.7869 2.64824C48.836 0.404671 47.3477 -0.866682 45.1528 0.899406C41.3658 3.9426 39.2834 6.4134 36.8577 9.81326C33.5582 8.3003 29.8865 7.45177 26.0159 7.45177C22.2663 7.45177 18.7014 8.24277 15.4797 9.66657C13.0772 6.30697 11.0005 3.85056 7.23945 0.830373C5.04454 -0.935715 3.55627 0.335638 3.6053 2.5792C3.7351 8.54766 5.04454 14.0617 5.62139 16.5123C5.66754 16.7079 5.74253 16.8719 5.84059 17.0157C2.19203 21.4712 0.00288639 27.1635 2.14402e-06 33.3649C-0.00576634 47.6835 11.6293 53.9914 25.9899 54C40.3505 54.0086 51.9913 47.7123 52 33.3908C52.0029 27.3044 49.9032 21.7099 46.3844 17.2832Z" fill="#770E3D"/>
</svg>
