<svg width="215" height="229" viewBox="0 0 215 229" fill="none" xmlns="http://www.w3.org/2000/svg">
<g id="Group">
<path id="Vector" d="M214.26 144.07C214.23 203.03 166.42 228.94 107.47 228.91C48.51 228.88 0.730024 202.92 0.760024 143.96C0.790024 84.9998 48.61 37.2298 107.56 37.2598C166.51 37.2898 214.29 85.1098 214.26 144.06V144.07Z" fill="url(#paint0_linear_155_294)"/>
<path id="Vector_2" d="M28.0499 8.44016C20.2199 -0.679844 15.5399 -2.06984 15.9199 6.72016C18.9199 39.0302 26.74 62.2402 31.44 73.7702C33.25 78.2102 38.58 80.0002 42.71 77.5602L67.51 62.9002C72.1 60.1902 72.7 53.7802 68.71 50.2402C48.94 32.7302 41.1099 23.6502 28.0499 8.43016V8.44016Z" fill="url(#paint1_linear_155_294)"/>
<path id="Vector_3" opacity="0.73" d="M50.99 64.0304C49.21 65.3404 45.88 67.4404 39.64 70.6704C37.92 71.5604 35.84 70.7304 35.1 68.9404C24.08 42.2004 21.12 25.0404 19.45 14.7804C16.85 -1.23964 20.56 4.55036 25.09 12.5604C29.62 20.5704 51.87 59.9104 51.87 59.9104C52.63 61.3204 52.26 63.0904 50.98 64.0404L50.99 64.0304Z" fill="#E9B5D4"/>
<path id="Vector_4" d="M182.2 8.44016C190.03 -0.679844 194.71 -2.06984 194.33 6.72016C191.33 39.0302 183.51 62.2402 178.81 73.7702C177 78.2102 171.67 80.0002 167.54 77.5602L142.74 62.9002C138.15 60.1902 137.55 53.7802 141.54 50.2402C161.31 32.7302 169.14 23.6502 182.2 8.43016V8.44016Z" fill="url(#paint2_linear_155_294)"/>
<path id="Vector_5" opacity="0.73" d="M159.25 64.0304C161.03 65.3404 164.36 67.4404 170.6 70.6704C172.32 71.5604 174.4 70.7304 175.14 68.9404C186.16 42.2004 189.12 25.0404 190.79 14.7804C193.39 -1.23964 189.68 4.55036 185.15 12.5604C180.62 20.5704 158.37 59.9104 158.37 59.9104C157.61 61.3204 157.98 63.0904 159.26 64.0404L159.25 64.0304Z" fill="#E9B5D4"/>
<g id="Group_2">
<g id="Group_3">
<path id="Vector_6" d="M116.78 173.199L110.34 161.919C109.85 161.859 109.36 161.829 108.85 161.819C108.03 161.819 107.23 161.889 106.45 162.039L99.98 173.119L97.35 168.519C96.03 170.729 95.26 173.349 95.24 176.159L122.31 176.289C122.32 173.179 121.41 170.299 119.84 167.939L116.77 173.209L116.78 173.199Z" fill="#DF7BAF"/>
<path id="Vector_7" d="M106.45 162.039C102.63 162.749 99.36 165.159 97.36 168.509L99.99 173.109L106.46 162.029L106.45 162.039Z" fill="white"/>
<path id="Vector_8" d="M119.85 167.929C117.68 164.659 114.27 162.389 110.33 161.919L116.77 173.199L119.84 167.929H119.85Z" fill="white"/>
</g>
<path id="Vector_9" d="M108.46 144.21L114.8 143.46C117.05 143.19 118.45 145.84 116.97 147.55L113.29 151.8C113.21 151.89 113.15 151.98 113.1 152.09L110.5 157.76C109.61 159.7 106.85 159.69 105.98 157.74L103.43 152.04C103.38 151.93 103.32 151.84 103.25 151.75L99.6101 147.47C98.1401 145.74 99.5701 143.11 101.82 143.4L108.16 144.21C108.26 144.22 108.36 144.22 108.46 144.21Z" fill="#DF7BAF"/>
<g id="Group_4">
<path id="Vector_10" d="M178.81 116.899L163.71 123.059C164.39 123.989 164.79 125.139 164.78 126.379C164.77 129.489 162.24 131.989 159.13 131.979C158.79 131.979 158.46 131.939 158.14 131.879C157.7 141.319 156.18 148.339 154.4 148.339C152.41 148.339 150.82 139.499 150.74 128.349L128.1 137.579C133.81 151.579 149.78 158.299 163.78 152.599C177.78 146.889 184.5 130.919 178.8 116.919L178.81 116.899Z" fill="#DF7BAF"/>
<path id="Vector_11" d="M60.12 147.88C58.35 147.88 56.9 140.88 56.54 131.48C56.5 131.48 56.47 131.48 56.44 131.48C53.33 131.47 50.8301 128.94 50.8401 125.83C50.8401 124.64 51.22 123.54 51.86 122.63L36.54 116.22C30.43 130.8 36.6 147.28 50.31 153.02C64.02 158.76 80.09 151.6 86.2 137.01L63.97 127.7C63.81 138.96 62.13 147.88 60.12 147.87V147.88Z" fill="#DF7BAF"/>
<path id="Vector_12" d="M154.4 148.33C156.18 148.33 157.7 141.31 158.14 131.87C155.79 131.44 153.95 129.55 153.6 127.17L150.75 128.33C150.83 139.48 152.41 148.31 154.41 148.32L154.4 148.33Z" fill="#354594"/>
<path id="Vector_13" d="M56.54 131.48C56.89 140.88 58.3401 147.87 60.1201 147.88C62.1201 147.88 63.81 138.96 63.97 127.71L61.9901 126.88C61.5101 129.48 59.26 131.44 56.54 131.48Z" fill="#354594"/>
<path id="Vector_14" d="M158.26 126.95C158.26 128.64 158.21 130.29 158.14 131.87C158.46 131.93 158.79 131.97 159.13 131.97C162.24 131.98 164.77 129.48 164.78 126.37C164.78 125.13 164.38 123.98 163.71 123.05L158.26 125.27C158.26 125.82 158.26 126.38 158.26 126.94V126.95Z" fill="#DF7BAF"/>
<path id="Vector_15" d="M158.13 131.88C158.2 130.3 158.25 128.65 158.25 126.96C158.25 126.4 158.25 125.84 158.25 125.29L153.59 127.19C153.94 129.57 155.77 131.46 158.13 131.89V131.88Z" fill="#354594"/>
<path id="Vector_16" d="M163.71 123.06L158.26 125.28L153.6 127.18C153.95 129.56 155.78 131.45 158.14 131.88C158.46 131.94 158.79 131.98 159.13 131.98C162.24 132 164.77 129.49 164.78 126.38C164.78 125.14 164.38 123.99 163.71 123.06Z" fill="url(#paint3_linear_155_294)"/>
<path id="Vector_17" d="M56.4401 131.489C56.4401 131.489 56.5101 131.489 56.5401 131.489C56.4801 129.879 56.4501 128.209 56.4601 126.479C56.4601 125.839 56.4701 125.209 56.4801 124.589L51.8501 122.649C51.2101 123.559 50.8401 124.659 50.8301 125.849C50.8201 128.959 53.3201 131.489 56.4301 131.499L56.4401 131.489Z" fill="#DF7BAF"/>
<path id="Vector_18" d="M56.4601 126.469C56.4601 128.199 56.48 129.869 56.54 131.479C59.26 131.439 61.5101 129.479 61.9901 126.879L56.4901 124.569C56.4801 125.189 56.47 125.819 56.47 126.459L56.4601 126.469Z" fill="#354594"/>
<path id="Vector_19" d="M56.4801 124.58L51.8501 122.64C51.2101 123.55 50.8401 124.65 50.8301 125.84C50.8201 128.95 53.3201 131.48 56.4301 131.49C56.4701 131.49 56.5001 131.49 56.5301 131.49C59.2501 131.45 61.5001 129.49 61.9801 126.89L56.4801 124.58Z" fill="url(#paint4_linear_155_294)"/>
</g>
</g>
</g>
<defs>
<linearGradient id="paint0_linear_155_294" x1="0.789671" y1="133.066" x2="214.29" y2="133.178" gradientUnits="userSpaceOnUse">
<stop stop-color="white"/>
<stop offset="1" stop-color="white"/>
</linearGradient>
<linearGradient id="paint1_linear_155_294" x1="15.8899" y1="39.7402" x2="71.36" y2="39.7402" gradientUnits="userSpaceOnUse">
<stop stop-color="white"/>
<stop offset="1" stop-color="white"/>
</linearGradient>
<linearGradient id="paint2_linear_155_294" x1="194.35" y1="39.7402" x2="138.88" y2="39.7402" gradientUnits="userSpaceOnUse">
<stop stop-color="white"/>
<stop offset="1" stop-color="white"/>
</linearGradient>
<linearGradient id="paint3_linear_155_294" x1="153.42" y1="127.51" x2="180.41" y2="127.51" gradientUnits="userSpaceOnUse">
<stop stop-color="white"/>
<stop offset="1" stop-color="white"/>
</linearGradient>
<linearGradient id="paint4_linear_155_294" x1="39.5001" y1="127.06" x2="62.1801" y2="127.06" gradientUnits="userSpaceOnUse">
<stop stop-color="white"/>
<stop offset="1" stop-color="white"/>
</linearGradient>
</defs>
</svg>
