<svg width="258" height="270" viewBox="0 0 258 270" fill="none" xmlns="http://www.w3.org/2000/svg">
<g clip-path="url(#clip0_155_726)">
<path d="M-1.92135e-05 69.7076C0.0362419 -1.66938 57.8113 -33.036 129.048 -32.9997C200.297 -32.9633 258.036 -1.53618 258 69.8407C257.964 141.218 200.177 199.048 128.94 199.012C57.6905 198.975 -0.0362803 141.085 -1.92145e-05 69.7197L-1.92135e-05 69.7076Z" fill="url(#paint0_linear_155_726)"/>
<path d="M33.9809 231.651C59.3459 211.167 69.2671 195.926 88.8316 167.441C91.043 164.22 83.8287 160.165 76.5418 157.647L50.198 149.197C40.3131 146.63 27.9146 145.069 25.9448 153.495C23.0809 165.709 16.6037 193.19 15.9511 222.934C15.7094 234.108 23.0929 240.452 33.9809 231.651Z" fill="url(#paint1_linear_155_726)"/>
<path opacity="0.73" d="M62.5486 160.056C56.2768 158.046 37.3891 150.383 35.371 156.109C22.9121 191.35 20.8577 215.755 20.1931 222.353C19.1659 232.595 27.6128 232.68 33.4737 223.527C39.3346 214.375 65.618 167.283 65.618 167.283C67.6965 164.499 65.8597 161.121 62.5486 160.068L62.5486 160.056Z" fill="#E9B5D4"/>
<path d="M215.621 231.723C192.854 208.37 184.806 192.051 168.77 161.447C166.957 157.997 174.594 154.813 182.135 153.179L209.288 147.925C219.403 146.545 231.898 146.472 232.865 155.067C234.255 167.537 237.445 195.598 234.569 225.21C233.493 236.335 225.409 241.758 215.633 231.723L215.621 231.723Z" fill="url(#paint2_linear_155_726)"/>
<path opacity="0.73" d="M195.729 157.223C202.194 155.976 221.856 150.613 223.185 156.532C231.39 193.008 230.532 217.474 230.399 224.108C230.206 234.398 221.807 233.478 217.082 223.697C212.345 213.915 191.826 164.026 191.826 164.026C190.098 161.012 192.31 157.876 195.729 157.223Z" fill="#E9B5D4"/>
<path d="M70.4515 71.2987C51.6843 71.2987 36.4705 86.5398 36.4705 105.341C36.4705 124.142 51.6843 139.383 70.4515 139.383C89.2188 139.383 104.433 124.142 104.433 105.341C104.433 86.5398 89.2188 71.2987 70.4515 71.2987Z" fill="#DF7BAF"/>
<path d="M189.361 70.2089C170.593 70.2089 155.38 85.45 155.38 104.251C155.38 123.052 170.593 138.293 189.361 138.293C208.128 138.293 223.342 123.052 223.342 104.251C223.342 85.45 208.128 70.2089 189.361 70.2089Z" fill="#DF7BAF"/>
<path d="M189.069 71.4111C174.727 71.5415 163.234 86.3511 163.398 104.489C163.562 122.628 175.322 137.226 189.664 137.095C204.006 136.965 215.499 122.155 215.334 104.017C215.17 85.8789 203.41 71.2807 189.069 71.4111Z" fill="#354594"/>
<path d="M69.1956 72.5009C54.8538 72.6313 43.3607 87.441 43.525 105.579C43.6893 123.717 55.4489 138.316 69.7907 138.185C84.1325 138.055 95.6256 123.245 95.4613 105.107C95.2969 86.9688 83.5374 72.3705 69.1956 72.5009Z" fill="#354594"/>
<path d="M178.763 116.018C174.444 116.018 170.944 119.525 170.944 123.851C170.944 128.177 174.444 131.684 178.763 131.684C183.081 131.684 186.581 128.177 186.581 123.851C186.581 119.525 183.081 116.018 178.763 116.018Z" fill="white"/>
<path d="M202.847 77.5575C200.818 77.5575 199.173 79.2052 199.173 81.2377C199.173 83.2703 200.818 84.918 202.847 84.918C204.876 84.918 206.521 83.2703 206.521 81.2377C206.521 79.2052 204.876 77.5575 202.847 77.5575Z" fill="white"/>
<path d="M58.0047 117.12C53.6866 117.12 50.1861 120.627 50.1861 124.953C50.1861 129.278 53.6866 132.785 58.0047 132.785C62.3228 132.785 65.8232 129.278 65.8232 124.953C65.8232 120.627 62.3228 117.12 58.0047 117.12Z" fill="white"/>
<path d="M82.5959 78.3192C80.567 78.3192 78.9223 79.9669 78.9223 81.9995C78.9223 84.032 80.567 85.6797 82.5959 85.6797C84.6248 85.6797 86.2695 84.032 86.2695 81.9995C86.2695 79.9669 84.6248 78.3192 82.5959 78.3192Z" fill="white"/>
<path d="M121.447 82.8107L128.746 82.0117L136.021 83.0165C142.112 83.8518 146.051 76.7456 142.112 72.0122L138.329 67.4603L136.311 62.8116C133.568 56.4923 124.674 56.3712 121.749 62.6058L119.598 67.194L115.683 71.6369C111.611 76.2614 115.345 83.4765 121.459 82.8107L121.447 82.8107Z" fill="#DF7BAF"/>
</g>
<defs>
<linearGradient id="paint0_linear_155_726" x1="257.959" y1="83.0468" x2="-0.0413214" y2="82.912" gradientUnits="userSpaceOnUse">
<stop stop-color="white"/>
<stop offset="1" stop-color="white"/>
</linearGradient>
<linearGradient id="paint1_linear_155_726" x1="91.8593" y1="178.007" x2="9.474" y2="195.847" gradientUnits="userSpaceOnUse">
<stop stop-color="white"/>
<stop offset="1" stop-color="white"/>
</linearGradient>
<linearGradient id="paint2_linear_155_726" x1="164.51" y1="171.601" x2="244.2" y2="199.07" gradientUnits="userSpaceOnUse">
<stop stop-color="white"/>
<stop offset="1" stop-color="white"/>
</linearGradient>
<clipPath id="clip0_155_726">
<rect width="258" height="270" fill="white" transform="translate(258 270) rotate(-180)"/>
</clipPath>
</defs>
</svg>
