<svg width="33" height="31" viewBox="0 0 33 31" fill="none" xmlns="http://www.w3.org/2000/svg">
<path d="M0.0799364 0.0182228C0.0666511 0.0378971 1.14276 1.48719 2.46465 3.2316C3.78655 4.976 6.5964 8.68777 8.70877 11.4749L12.5482 16.5441L12.3024 16.8196C12.163 16.9704 9.33982 19.9805 6.03177 23.5086C2.72372 27.0434 0.00686706 29.9551 0.000224393 29.9879C-0.0130609 30.0206 0.564851 30.0469 1.39519 30.0403L2.81007 30.0338L3.27506 29.5288C3.53412 29.2534 5.93877 26.6892 8.62241 23.8234C11.306 20.9576 13.5778 18.5312 13.6708 18.4263L13.8369 18.2361L15.1654 19.9936C15.8961 20.9576 17.9089 23.6201 19.636 25.9023L22.7846 30.0469H27.6005C31.606 30.0469 32.4098 30.0338 32.3832 29.9616C32.3633 29.9092 31.1411 28.2828 29.6664 26.3351C28.1917 24.394 26.5045 22.1643 25.9199 21.3904C25.3287 20.6166 23.595 18.3148 22.0539 16.2884C20.5128 14.2554 19.2507 12.5635 19.2507 12.5373C19.2507 12.4914 27.3946 3.76279 30.1646 0.844519L30.9551 0.0116653H29.5003L28.0522 0.0182228L26.3583 1.82821C25.4284 2.82501 23.1499 5.26455 21.29 7.23848L17.9221 10.8322L13.8369 5.44161L9.74502 0.0444546L4.92909 0.0116653C2.27866 -0.00800896 0.0932218 -0.00144958 0.0799364 0.0182228ZM11.492 5.82853C13.0664 7.91394 15.4976 11.1208 16.8925 12.9635C18.2875 14.7997 21.383 18.8919 23.7743 22.0462C26.1657 25.2071 28.1452 27.8237 28.1784 27.8697C28.2183 27.9287 27.7467 27.9483 26.0262 27.9483H23.8275L19.4699 22.1905C9.41289 8.92386 4.33789 2.22168 4.2781 2.12331C4.23825 2.06429 4.68995 2.04462 6.42369 2.04462H8.62241L11.492 5.82853Z" fill="white"/>
</svg>
