<svg width="44" height="31" viewBox="0 0 44 31" fill="none" xmlns="http://www.w3.org/2000/svg">
<path d="M42.4844 4.70029C41.9899 2.85037 40.5327 1.39317 38.6828 0.898683C35.3298 -2.27818e-07 21.8835 0 21.8835 0C21.8835 0 8.43718 -2.27818e-07 5.0842 0.898683C3.23428 1.39317 1.77709 2.85037 1.28259 4.70029C0.383911 8.05327 0.383911 15.0497 0.383911 15.0497C0.383911 15.0497 0.383911 22.0462 1.28259 25.3992C1.77709 27.2491 3.23428 28.7063 5.0842 29.2008C8.43718 30.0994 21.8835 30.0994 21.8835 30.0994C21.8835 30.0994 35.3298 30.0994 38.6828 29.2008C40.5327 28.7063 41.9899 27.2491 42.4844 25.3992C43.3831 22.0462 43.3831 15.0497 43.3831 15.0497C43.3831 15.0497 43.3831 8.05327 42.4844 4.70029ZM17.5836 21.4996V8.59984L28.7548 15.0497L17.5836 21.4996Z" fill="white"/>
</svg>
